<!--> https://jakearchibald.github.io/svgomg/ -->
<svg xmlns="http://www.w3.org/2000/svg" width="661.5" height="550.1">
  <path d="M535.7 144.4c15.6 3.8 32 5.8 47.8 7C599 154 594 172 597.3 182.7c1.7 17.2 24.7 17 24.8-.8 5-19-4-44-25-47-16-4-33-1-50-3-5 0-25 6-11 11z" fill="#d40000"/>
  <path d="M393 409.7c15.6 2.5 36.2-5.3 48.6 4 4.6 10.5 6 24.6-2.2 33.7-9.6 8.3-12.7 21-21.2 30-12 16.3 13 11 22.6 11.2 8.6-2.8 26.2 7.6 11.7 12.7-22-.5-44.4.8-66.5-.8-12.8-8.4-4.8-27.8-5.6-40.6 3.6-17 6-35 12.5-51zm111.4-18.2c-1.4-55 12 60.8 16.6 81.8-1 10.4 15.5 42.5-3.3 38.2C504 503 502.5 479 495.2 466c-6.8-18-14.8-37.7-9.4-57 4.6-9 15.2-28 18.6-17.5z" fill="#d27100"/>
  <path d="M604 41.7c-38.7 18.4-58.4 34-103.6 71.7-6.5-4.5-15.8-12-19.5-13.3-11-3-21-6-31-9-5 4 1 10 3 14 1 1 1 3 2 4-68-16-18 21-1 44-6 15-31 37-45 103-23 39-135 151-144 200-6 14-7 32-3 48-17 4-29 7-51 2-28-15-41-24-72-44-52-23-116-15-101 49 7-35 76-33 94-23 29 23 37 28 59 40 23 11 57 11.3 81-2 8 9.6 11 11.7 36 10.6 47 .3 95 2.7 142-5 16-30.6-46-15-57-29.3 4-1 8-2.3 11-4.4 6-2 12-4 18-7.6 13-3 35-23 54-45 6 19 13 38 15 59 0 10 10 50 21 26-3-47.6-5-52-9-99.7 16-64 41-81 17.2-211.4 33-33 127-135 81-174.7z" fill="#f29a25"/>
  <path d="M606.2 34.6c-10.4 9-25.5 20-21.5 35.7 11.7 12 30.3-1.7 40.2-10.6 12-10.3 5-35.5-13-28-3 .7-5 1.7-7 3z" fill="#045"/>
  <g class="eyes"> <!-- children grouped manually -->
    <path d="M537 140a15 15 0 1 1-30 0 15 15 0 1 1 30 0zm-15-30.3a9 9 0 1 1-18.2 0 9 9 0 1 1 18 0z"/>  
    <path d="M531.4 136.4a3.2 5 0 1 1-6.3 0 3.2 5 0 1 1 7 0zm-14-29.8a2 3.2 0 1 1-4 0 2 3.2 0 1 1 4 0z" fill="#fff"/>
    <path d="M505.2 149c6.2 23.8 33.5 9.3 31.6 1.7-11.8 8.7-22.5 8.3-31.6-1.7zm-4.2-34c4.5 17.4 24.7 6.7 23.3 1-8.7 6.5-16.6 6.2-23.4-1z" fill="#c25d00"/>
  </g>
  <path d="M353.4 415.3c9-20.2 100.7 10.7 41.4 79.7 20-33 .5-90.7-41.4-79.7z" fill="#ff7f2a"/>
  <path d="M429 120.8c-.7.2-1.2.6-1.5 1 29 14.7 31.7 40.2 40.4 26.3 3-3 12-10 5-14-15-4-30-8-44-13z" fill="#a93600"/>
</svg>
